<svg width="80" height="80" viewBox="0 0 80 80" fill="none" xmlns="http://www.w3.org/2000/svg">
<rect width="80" height="80" rx="12" fill="#1E1E1E"/>
<path d="M13.9297 56V21.875H22.7656C24.3438 21.875 25.8203 22.0703 27.1953 22.4609C28.5703 22.8359 29.8203 23.375 30.9453 24.0781C31.9297 24.6562 32.8047 25.3672 33.5703 26.2109C34.3516 27.0391 35.0312 27.9453 35.6094 28.9297C36.2812 30.1328 36.7969 31.4609 37.1562 32.9141C37.5312 34.3672 37.7188 35.9141 37.7188 37.5547V40.3672C37.7188 41.9453 37.5469 43.4375 37.2031 44.8438C36.8594 46.25 36.375 47.5391 35.75 48.7109C35.1562 49.7578 34.4609 50.7266 33.6641 51.6172C32.8672 52.4922 31.9922 53.2266 31.0391 53.8203C29.9297 54.5234 28.7031 55.0625 27.3594 55.4375C26.0312 55.8125 24.6094 56 23.0938 56H13.9297ZM20.5625 27.2188V50.7031H23.0938C23.9062 50.7031 24.6641 50.6016 25.3672 50.3984C26.0703 50.1953 26.7109 49.8984 27.2891 49.5078C27.8828 49.1016 28.4141 48.5859 28.8828 47.9609C29.3672 47.3203 29.7812 46.5781 30.125 45.7344C30.4062 45 30.6172 44.1875 30.7578 43.2969C30.9141 42.3906 30.9922 41.4141 30.9922 40.3672V37.5078C30.9922 36.5234 30.9141 35.5938 30.7578 34.7188C30.6172 33.8281 30.4062 33.0156 30.125 32.2812C29.7812 31.4062 29.3281 30.625 28.7656 29.9375C28.2188 29.25 27.5781 28.6875 26.8438 28.25C26.2812 27.9219 25.6562 27.6719 24.9688 27.5C24.2969 27.3125 23.5625 27.2188 22.7656 27.2188H20.5625ZM60.6172 47.0938C60.6172 46.4844 60.5078 45.9141 60.2891 45.3828C60.0859 44.8516 59.7344 44.3516 59.2344 43.8828C58.7188 43.4297 58.0469 43.0156 57.2188 42.6406C56.4062 42.25 55.3906 41.8906 54.1719 41.5625C52.2812 41.0469 50.6172 40.4219 49.1797 39.6875C47.7578 38.9531 46.5938 38.1484 45.6875 37.2734C44.7812 36.3984 44.0938 35.4297 43.625 34.3672C43.1719 33.3047 42.9453 32.1484 42.9453 30.8984C42.9453 29.4609 43.25 28.1562 43.8594 26.9844C44.4688 25.8125 45.3125 24.8125 46.3906 23.9844C47.4688 23.1562 48.7422 22.5234 50.2109 22.0859C51.6797 21.6328 53.2734 21.4062 54.9922 21.4062C56.7734 21.4062 58.3984 21.6641 59.8672 22.1797C61.3516 22.6953 62.625 23.4141 63.6875 24.3359C64.75 25.2734 65.5781 26.3828 66.1719 27.6641C66.7656 28.9453 67.0625 30.3516 67.0625 31.8828H60.6406C60.6094 31.1172 60.4688 30.4141 60.2188 29.7734C59.9844 29.1328 59.6328 28.5781 59.1641 28.1094C58.6797 27.6562 58.0781 27.3047 57.3594 27.0547C56.6562 26.7891 55.8281 26.6562 54.875 26.6562C54 26.6562 53.2188 26.7656 52.5312 26.9844C51.8594 27.1875 51.2891 27.4766 50.8203 27.8516C50.3516 28.2422 49.9922 28.7031 49.7422 29.2344C49.5078 29.75 49.3906 30.3125 49.3906 30.9219C49.3906 31.5625 49.5469 32.1406 49.8594 32.6562C50.1875 33.1719 50.6562 33.6328 51.2656 34.0391C51.875 34.4609 52.6094 34.8438 53.4688 35.1875C54.3438 35.5312 55.3281 35.8516 56.4219 36.1484C57.5938 36.4766 58.7109 36.875 59.7734 37.3438C60.8359 37.8125 61.8125 38.3516 62.7031 38.9609C64.0469 39.9609 65.1172 41.125 65.9141 42.4531C66.7109 43.7812 67.1094 45.3125 67.1094 47.0469C67.1094 48.5469 66.8047 49.8828 66.1953 51.0547C65.6016 52.2109 64.7734 53.1875 63.7109 53.9844C62.6484 54.7969 61.3828 55.4141 59.9141 55.8359C58.4453 56.2422 56.8438 56.4453 55.1094 56.4453C53.4062 56.4453 51.7188 56.1953 50.0469 55.6953C48.3906 55.1797 46.9453 54.4297 45.7109 53.4453C44.5391 52.4766 43.6094 51.3359 42.9219 50.0234C42.25 48.7109 41.9141 47.1719 41.9141 45.4062H48.3828C48.4141 46.4375 48.5938 47.3203 48.9219 48.0547C49.25 48.7891 49.7109 49.3906 50.3047 49.8594C50.8828 50.3281 51.5781 50.6719 52.3906 50.8906C53.2188 51.1094 54.125 51.2188 55.1094 51.2188C55.9844 51.2188 56.7578 51.1172 57.4297 50.9141C58.1172 50.7109 58.6953 50.4297 59.1641 50.0703C59.6328 49.7109 59.9922 49.2812 60.2422 48.7812C60.4922 48.2656 60.6172 47.7031 60.6172 47.0938Z" fill="white"/>
</svg>
